<svg id="Laag_1" data-name="Laag 1" xmlns="http://www.w3.org/2000/svg" viewBox="0 0 573.16 213.03"><defs><style>.cls-1{fill:#4e91cd;}.cls-1,.cls-2,.cls-4,.cls-6{stroke:#010101;}.cls-1,.cls-2,.cls-3,.cls-4,.cls-5,.cls-6,.cls-7{stroke-miterlimit:10;}.cls-1,.cls-2,.cls-3,.cls-6,.cls-7{stroke-width:5px;}.cls-2,.cls-7{fill:#fff;}.cls-3{fill:#030405;}.cls-3,.cls-5,.cls-7{stroke:#000;}.cls-4,.cls-6{fill:none;}.cls-4,.cls-5{stroke-width:3px;}</style></defs><title>car2</title><path class="cls-1" d="M516.57,199.63s29.13,1.49,42.13-.51c0,0,26-3,20-17,0,0-3-11,3-20,0,0-1-27-18-39,0,0-14-25-130-35,0,0-87-60-134-62,0,0-76-8-173-4l-9-6s-3-1-2,9l-46,3s-4,0,5,8c0,0-47.2,43.83-49.6,56.42,0,0-1.4,22.58-.4,27.58a11.43,11.43,0,0,1-7,10s-5-1-4,18c0,0-1,15,3,19,0,0,4,6,2,10,0,0-2,7,11,8,0,0,10-5,28,1" transform="translate(-11.07 -13.59)"/><path class="cls-2" d="M141.7,31.12s117-2,153,4c0,0,47,3,111,52,0,0,12,9-4,9,0,0-212-17-278-15,0,0-20,1-13-16C110.7,65.12,120.7,34.12,141.7,31.12Z" transform="translate(-11.07 -13.59)"/><path class="cls-3" d="M29.7,84.12h17l11,24h-33S21.7,93.12,29.7,84.12Z" transform="translate(-11.07 -13.59)"/><line class="cls-4" x1="230.47" y1="17.21" x2="238.63" y2="65.53"/><path class="cls-4" d="M568.7,167.12h-23s-3,21,10,20h22" transform="translate(-11.07 -13.59)"/><path class="cls-5" d="M572.7,138.12s-4-15-34-20c0,0-12-1-17,6,0,0,13,16,22,19C543.7,143.12,572.7,147.12,572.7,138.12Z" transform="translate(-11.07 -13.59)"/><path class="cls-4" d="M50.7,184.12s-9-58,53-60c0,0,55-3,51,66" transform="translate(-11.07 -13.59)"/><path class="cls-4" d="M420.7,196.12s-7-66,55-68c0,0,60-2,51,73" transform="translate(-11.07 -13.59)"/><line class="cls-6" x1="135.6" y1="176.53" x2="422.99" y2="182.21"/><circle class="cls-7" cx="465.13" cy="165.03" r="45.5"/><circle class="cls-5" cx="463.63" cy="165.53" r="35"/><circle class="cls-7" cx="92.13" cy="163.03" r="45.5"/><circle class="cls-5" cx="91.63" cy="163.53" r="35"/></svg>